<?xml version="1.0" encoding="utf-8"?>
<!-- Generator: Adobe Illustrator 26.0.0, SVG Export Plug-In . SVG Version: 6.00 Build 0)  -->
<svg version="1.1" id="Layer_1" xmlns="http://www.w3.org/2000/svg" xmlns:xlink="http://www.w3.org/1999/xlink" x="0px" y="0px"
	 viewBox="0 0 24 24" style="enable-background:new 0 0 24 24;" xml:space="preserve">
<style type="text/css">
	.st0{fill-rule:evenodd;clip-rule:evenodd;fill:#FFFFFF;}
</style>
<path class="st0" d="M2,12C2,6.5,6.5,2,12,2c5.5,0,10,4.5,10,10c0,5.5-4.5,10-10,10C6.5,22,2,17.5,2,12z M12,4c-4.4,0-8,3.6-8,8
	c0,4.4,3.6,8,8,8c4.4,0,8-3.6,8-8C20,7.6,16.4,4,12,4z"/>
<path class="st0" d="M13,7c0-0.6-0.4-1-1-1s-1,0.4-1,1v4H7c-0.6,0-1,0.4-1,1s0.4,1,1,1h4v4c0,0.6,0.4,1,1,1s1-0.4,1-1v-4h4
	c0.6,0,1-0.4,1-1s-0.4-1-1-1h-4V7z"/>
</svg>
