<?xml version="1.0" encoding="utf-8"?>
<!-- Generator: Adobe Illustrator 26.0.0, SVG Export Plug-In . SVG Version: 6.00 Build 0)  -->
<svg version="1.1" id="Capa_1" xmlns="http://www.w3.org/2000/svg" xmlns:xlink="http://www.w3.org/1999/xlink" x="0px" y="0px"
	 viewBox="0 0 477.3 477.3" style="enable-background:new 0 0 477.3 477.3;" xml:space="preserve">
<style type="text/css">
	.st0{fill:#FFFFFF;}
</style>
<g>
	<g>
		<g>
			<path class="st0" d="M42.8,358.1c0-24.1,0-306.8,0-330.9c23.9,0,278.9,0,302.8,0c0,8.5,0,49.4,0,99.7c5.8-1.1,11.8-1.8,18-1.8
				c3.1,0,6.1,0.6,9.2,0.9V0H15.6v385.2h224.6v-27.2C158.5,358.1,57.5,358.1,42.8,358.1z"/>
			<path class="st0" d="M81.5,206.8H266c1.8-10.2,5.4-19.6,10.1-28.5H81.5V206.8z"/>
			<rect x="81.5" y="89.4" class="st0" width="225.4" height="28.5"/>
			<path class="st0" d="M81.5,295.8h191.3c5.1-3.1,10.6-5.6,16.4-7.2c-5.5-6.5-10.1-13.7-14-21.3H81.5V295.8z"/>
			<path class="st0" d="M363.6,298.7c41.1,0,74.2-33.2,74.2-74.1c0-41-33.1-74.2-74.2-74.2c-40.9,0-74,33.2-74,74.2
				C289.6,265.5,322.7,298.7,363.6,298.7z"/>
			<path class="st0" d="M423.1,310.7H304.3c-21.2,0-38.6,19.5-38.6,43.4v119.3c0,1.3,0.6,2.5,0.7,3.8H461c0.1-1.3,0.7-2.5,0.7-3.8
				V354.1C461.7,330.2,444.4,310.7,423.1,310.7z"/>
		</g>
	</g>
</g>
</svg>
