<?xml version="1.0" encoding="utf-8"?>
<!-- Generator: Adobe Illustrator 26.0.0, SVG Export Plug-In . SVG Version: 6.00 Build 0)  -->
<svg version="1.1" id="Capa_1" xmlns="http://www.w3.org/2000/svg" xmlns:xlink="http://www.w3.org/1999/xlink" x="0px" y="0px"
	 viewBox="0 0 60 60" style="enable-background:new 0 0 60 60;" xml:space="preserve">
<style type="text/css">
	.st0{fill:#FCFCFC;}
</style>
<g>
	<path class="st0" d="M5.2,44.8L42.4,7.7l9.9,9.9L15.1,54.7L5.2,44.8z"/>
	<path class="st0" d="M56.5,13.4l1.4-1.4c1.3-1.3,2-3.1,2-4.9s-0.7-3.6-2-4.9S54.9,0,53,0s-3.6,0.7-5,2.1l-1.4,1.4L56.5,13.4z"/>
	<path class="st0" d="M4.1,46.5l-4,12.1c-0.1,0.4,0,0.8,0.2,1C0.5,59.9,0.7,60,1,60c0.1,0,0.2,0,0.3-0.1l12.1-4L4.1,46.5z"/>
	<path class="st0" d="M43.8,6.3l1.4-1.4l9.9,9.9l-1.4,1.4L43.8,6.3z"/>
</g>
</svg>
