<?xml version="1.0" encoding="utf-8"?>
<!-- Generator: Adobe Illustrator 26.0.0, SVG Export Plug-In . SVG Version: 6.00 Build 0)  -->
<svg version="1.1" id="Layer_1" xmlns="http://www.w3.org/2000/svg" xmlns:xlink="http://www.w3.org/1999/xlink" x="0px" y="0px"
	 viewBox="0 0 512 512" style="enable-background:new 0 0 512 512;" xml:space="preserve">
<style type="text/css">
	.st0{fill:#FFFFFF;}
</style>
<path class="st0" d="M440.1,341.3c-1.7-2-3.3-4-4.9-5.9c-22-26.6-35.3-42.7-35.3-118c0-39-9.3-71-27.7-95
	c-13.6-17.7-31.9-31.2-56-41.1c-0.3-0.2-0.6-0.4-0.8-0.7C306.6,51.5,282.8,32,256,32s-50.6,19.5-59.3,48.6c-0.2,0.3-0.5,0.5-0.8,0.7
	c-56.4,23.2-83.8,67.7-83.8,136.1c0,75.4-13.3,91.4-35.3,118c-1.6,1.9-3.2,3.9-4.9,5.9c-8.8,10.6-10.6,25.2-4.7,37.6
	c6.2,13,19.3,21.1,34.3,21.1h308.9c14.9,0,28-8.1,34.2-21C450.6,366.6,448.8,351.9,440.1,341.3z"/>
<path class="st0" d="M256,480c29.4,0,56.5-16.2,70.4-42.1c1-2,0.3-4.4-1.7-5.4c-0.6-0.3-1.2-0.5-1.9-0.5H189.1c-2.2,0-4,1.8-4,4
	c0,0.7,0.2,1.3,0.5,1.9C199.5,463.8,226.6,480,256,480z"/>
</svg>
