<?xml version="1.0" encoding="utf-8"?>
<!-- Generator: Adobe Illustrator 26.0.0, SVG Export Plug-In . SVG Version: 6.00 Build 0)  -->
<svg version="1.1" id="Layer_1" xmlns="http://www.w3.org/2000/svg" xmlns:xlink="http://www.w3.org/1999/xlink" x="0px" y="0px"
	 viewBox="0 0 512 512" style="enable-background:new 0 0 512 512;" xml:space="preserve">
<style type="text/css">
	.st0{fill:#FFFFFF;}
</style>
<g>
	<g>
		<polygon class="st0" points="360.4,20.2 360.4,101.1 441.3,101.1 		"/>
	</g>
</g>
<g>
	<g>
		<polygon class="st0" points="320,141.5 320,0 84.2,0 84.2,175.2 306.5,175.2 306.5,485.1 461.5,485.1 461.5,141.5 		"/>
	</g>
</g>
<g>
	<g>
		<path class="st0" d="M50.5,215.6V512h215.6V215.6H50.5z M138.1,464.8H97.7v-40.4h40.4V464.8z M138.1,384H97.7v-40.4h40.4V384z
			 M218.9,464.8h-40.4v-40.4h40.4V464.8z M218.9,384h-40.4v-40.4h40.4V384z M218.9,303.2H97.7v-40.4h121.3L218.9,303.2L218.9,303.2z
			"/>
	</g>
</g>
</svg>
