<?xml version="1.0" encoding="utf-8"?>
<!-- Generator: Adobe Illustrator 26.0.0, SVG Export Plug-In . SVG Version: 6.00 Build 0)  -->
<svg version="1.1" id="Layer_1" xmlns="http://www.w3.org/2000/svg" xmlns:xlink="http://www.w3.org/1999/xlink" x="0px" y="0px"
	 viewBox="0 0 1024 1024" style="enable-background:new 0 0 1024 1024;" xml:space="preserve">
<style type="text/css">
	.st0{fill:#FFFFFF;}
</style>
<path class="st0" d="M876,529.4c-15.9,0-28,12.1-28,28v249.2c0,38.3-34.5,69.1-76.5,69.1h-575c-42,0-76.5-30.8-76.5-69.1V272.8
	c0-38.3,34.5-69.1,76.5-69.1h270.7c15.9,0,28-12.1,28-28s-12.1-28-28-28H196.5c-72.8,0-132.5,56-132.5,125.1v533.9
	c0,69.1,59.7,125.1,132.5,125.1h574.9c72.8,0,132.5-56,132.5-125.1V557.4C904,541.6,891.9,529.4,876,529.4z"/>
<path class="st0" d="M932,91.7H642.7c-15.9,0-28,12.1-28,28s12.1,28,28,28h222.1L389.7,622.8c-9.3,10.3-9.3,27.1,0,38.3
	c5.6,5.6,13.1,9.3,20.5,9.3c6.5,0,13.1-2.8,18.7-7.5l475.1-476V409c0,15.9,12.1,28,28,28s28-12.1,28-28V119.7
	C960,103.8,947.9,91.7,932,91.7z"/>
</svg>
